<?xml version="1.0"?>
<svg xmlns="http://www.w3.org/2000/svg" viewBox="0 0 512 512" width="512" height="512" fill="#fff"><path d="M104,496H408a40.045,40.045,0,0,0,40-40V120a8,8,0,0,0-2.343-5.657l-96-96A8,8,0,0,0,344,16H104A40.045,40.045,0,0,0,64,56V456A40.045,40.045,0,0,0,104,496ZM352,43.313,420.687,112H376a24.028,24.028,0,0,1-24-24ZM80,56a24.028,24.028,0,0,1,24-24H336V88a40.045,40.045,0,0,0,40,40h56V456a24.028,24.028,0,0,1-24,24H104a24.028,24.028,0,0,1-24-24Z"/><path d="M224,168h64a8,8,0,0,0,0-16H224a8,8,0,0,0,0,16Z"/><path d="M249.854,389.121a8,8,0,0,0,12.292,0l80-96A8,8,0,0,0,336,280H296V192a8,8,0,0,0-8-8H224a8,8,0,0,0-8,8v88H176a8,8,0,0,0-6.146,13.121ZM224,296a8,8,0,0,0,8-8V200h48v88a8,8,0,0,0,8,8h30.92L256,371.5,193.08,296Z"/></svg>
