<?xml version="1.0" encoding="iso-8859-1"?>
<!-- Generator: Adobe Illustrator 18.0.0, SVG Export Plug-In . SVG Version: 6.00 Build 0)  -->
<!DOCTYPE svg PUBLIC "-//W3C//DTD SVG 1.1//EN" "http://www.w3.org/Graphics/SVG/1.1/DTD/svg11.dtd">
<svg version="1.1" id="Capa_1" xmlns="http://www.w3.org/2000/svg" xmlns:xlink="http://www.w3.org/1999/xlink" x="0px" y="0px"
	 viewBox="0 0 60 60" style="enable-background:new 0 0 60 60;" xml:space="preserve">
<g>
	<path d="M30.5,0C14.233,0,1,13.233,1,29.5c0,5.146,1.346,10.202,3.896,14.65L0.051,58.684c-0.116,0.349-0.032,0.732,0.219,1
		C0.462,59.889,0.728,60,1,60c0.085,0,0.17-0.011,0.254-0.033l15.867-4.175C21.243,57.892,25.86,59,30.5,59
		C46.767,59,60,45.767,60,29.5S46.767,0,30.5,0z M30.5,57c-3.468,0-6.919-0.672-10.132-1.945l4.849-1.079
		c0.539-0.12,0.879-0.654,0.759-1.193c-0.12-0.54-0.651-0.877-1.193-0.76l-7.76,1.727c-0.007,0.002-0.012,0.007-0.019,0.008
		c-0.006,0.001-0.012,0-0.018,0.001L2.533,57.563l4.403-13.209c0.092-0.275,0.059-0.577-0.089-0.827C4.33,39.291,3,34.441,3,29.5
		C3,14.337,15.336,2,30.5,2S58,14.337,58,29.5S45.664,57,30.5,57z"/>
	<path d="M17,26c-2.206,0-4,1.794-4,4s1.794,4,4,4s4-1.794,4-4S19.206,26,17,26z M17,32c-1.103,0-2-0.897-2-2s0.897-2,2-2
		s2,0.897,2,2S18.103,32,17,32z"/>
	<path d="M30,26c-2.206,0-4,1.794-4,4s1.794,4,4,4s4-1.794,4-4S32.206,26,30,26z M30,32c-1.103,0-2-0.897-2-2s0.897-2,2-2
		s2,0.897,2,2S31.103,32,30,32z"/>
	<path d="M43,26c-2.206,0-4,1.794-4,4s1.794,4,4,4s4-1.794,4-4S45.206,26,43,26z M43,32c-1.103,0-2-0.897-2-2s0.897-2,2-2
		s2,0.897,2,2S44.103,32,43,32z"/>
</g>
<g>
</g>
<g>
</g>
<g>
</g>
<g>
</g>
<g>
</g>
<g>
</g>
<g>
</g>
<g>
</g>
<g>
</g>
<g>
</g>
<g>
</g>
<g>
</g>
<g>
</g>
<g>
</g>
<g>
</g>
</svg>
