<?xml version="1.0" standalone="no"?>
<!DOCTYPE svg PUBLIC "-//W3C//DTD SVG 20010904//EN"
 "http://www.w3.org/TR/2001/REC-SVG-20010904/DTD/svg10.dtd">
<svg version="1.0" xmlns="http://www.w3.org/2000/svg"
 width="700.000000pt" height="700.000000pt" viewBox="0 0 700.000000 700.000000"
 preserveAspectRatio="xMidYMid meet">
<metadata>
Created by potrace 1.11, written by Peter Selinger 2001-2013
</metadata>
<g transform="translate(0.000000,700.000000) scale(0.100000,-0.100000)"
fill="#000000" stroke="none">
<path d="M3225 6289 c-365 -35 -785 -167 -1097 -346 -716 -409 -1214 -1093
-1372 -1883 -14 -69 -31 -165 -38 -215 -17 -120 -17 -570 0 -690 67 -464 205
-835 447 -1200 384 -580 974 -1000 1644 -1170 1283 -324 2609 286 3200 1473
349 700 386 1529 102 2257 -386 988 -1298 1677 -2351 1774 -132 13 -403 12
-535 0z m-551 -2478 c75 -37 128 -91 165 -170 22 -47 26 -70 26 -141 0 -76 -4
-93 -33 -152 -38 -77 -92 -130 -171 -167 -47 -22 -70 -26 -141 -26 -71 0 -94
4 -141 26 -79 37 -133 90 -171 167 -29 59 -33 76 -33 152 0 71 4 94 26 140 87
186 293 260 473 171z m980 0 c75 -37 128 -91 165 -170 22 -47 26 -70 26 -141
0 -76 -4 -93 -33 -152 -38 -77 -92 -130 -171 -167 -47 -22 -70 -26 -141 -26
-71 0 -94 4 -141 26 -79 37 -133 90 -171 167 -29 59 -33 76 -33 152 0 71 4 94
26 140 87 186 293 260 473 171z m980 0 c75 -37 128 -91 165 -170 22 -47 26
-70 26 -141 0 -76 -4 -93 -33 -152 -38 -77 -92 -130 -171 -167 -47 -22 -70
-26 -141 -26 -71 0 -94 4 -141 26 -79 37 -133 90 -171 167 -29 59 -33 76 -33
152 0 71 4 94 26 140 87 186 293 260 473 171z"/>
</g>
</svg>
